<?xml version="1.0" encoding="UTF-8" standalone="no"?>
<!DOCTYPE svg PUBLIC "-//W3C//DTD SVG 1.1//EN" "http://www.w3.org/Graphics/SVG/1.1/DTD/svg11.dtd">
<svg xmlns="http://www.w3.org/2000/svg" xmlns:xlink="http://www.w3.org/1999/xlink" version="1.1" width="176.177pt" height="89.9594pt" viewBox="0 0 176.177 89.9594">
<g enable-background="new">
<g id="Layer-1" data-name="Layer">
<path transform="matrix(1,0,0,-1,136.7354,28.915799)" d="M 0 0 L 7.289 -11.465 L 14.591 0 L 7.301 11.503 Z " fill="#9e005d"/>
<path transform="matrix(1,0,0,-1,143.0068,28.915799)" d="M 0 0 L 1.03 -1.633 L 2.035 .013 L 1.018 1.562 Z " fill="#ffffff"/>
<path transform="matrix(1,0,0,-1,144.0234,17.412896)" d="M 0 0 L 7.314 -11.503 L 11.491 -11.503 L .014 6.271 Z " fill="#b10069"/>
<path transform="matrix(1,0,0,-1,140.8408,28.915799)" d="M 0 0 L 3.196 -5.018 L 3.196 -1.645 L 2.166 0 Z " fill="#b10069"/>
<path transform="matrix(1,0,0,-1,151.3389,28.915799)" d="M 0 0 L -7.315 -11.465 L -7.315 -17.728 L 4.178 0 Z " fill="#c40075"/>
<path transform="matrix(1,0,0,-1,140.8408,28.915799)" d="M 0 0 L 2.166 0 L 3.196 1.55 L 3.196 4.912 Z " fill="#c40075"/>
<path transform="matrix(1,0,0,-1,132.5576,28.915799)" d="M 0 0 L 11.479 -17.728 L 11.479 -11.465 L 4.176 0 Z " fill="#7b0046"/>
<path transform="matrix(1,0,0,-1,144.0234,27.365998)" d="M 0 0 L 1.009 -1.55 L 3.208 -1.55 L 0 3.362 Z " fill="#7b0046"/>
<path transform="matrix(1,0,0,-1,132.5576,28.915799)" d="M 0 0 L 4.176 0 L 11.479 11.503 L 11.479 17.776 Z " fill="#690039"/>
<path transform="matrix(1,0,0,-1,145.0312,28.915799)" d="M 0 0 L -1.008 -1.645 L -1.008 -5.018 L 2.201 0 Z " fill="#690039"/>
<clipPath id="cp0">
<path transform="matrix(1,0,0,-1,0,89.9594)" d="M 0 89.959 L 176.177 89.959 L 176.177 0 L 0 0 Z "/>
</clipPath>
<g clip-path="url(#cp0)">
<path transform="matrix(1,0,0,-1,14.6631,18.623795)" d="M 0 0 C 0 .521 -.162 .749 -.519 .749 C -.879 .749 -1.057 .505 -1.057 0 L -1.057 -9.958 C -1.057 -10.672 -.968 -10.812 -.484 -10.812 C .449 -10.812 2.185 -10.567 3.351 -10.254 C 6.81 -9.383 9.299 -7.399 9.299 -5.553 C 9.299 -4.056 7.634 -3.082 5.106 -3.082 C 4.803 -3.082 4.533 -3.099 4.049 -3.134 C 4.963 -2.455 5.411 -1.742 5.411 -.958 C 5.411 .087 4.426 .818 3.029 .818 C 2.079 .818 1.201 .521 0 -.21 Z M 0 -1.271 C .95 -.643 2.131 -.225 2.975 -.225 C 3.708 -.225 4.192 -.575 4.192 -1.114 C 4.192 -2.193 2.275 -3.517 0 -4.021 Z M 0 -4.979 C 1.434 -4.388 3.082 -4.075 4.641 -4.075 C 6.81 -4.075 8.1 -4.684 8.1 -5.71 C 8.1 -6.667 6.79 -7.816 4.73 -8.687 C 3.208 -9.314 2.383 -9.505 0 -9.766 Z M 12.672 -.192 L 18.208 -.192 C 18.763 -.192 18.979 -.053 18.979 .313 C 18.979 .696 18.763 .836 18.208 .836 L 12.672 .836 C 11.705 .836 11.614 .767 11.614 -.035 L 11.614 -9.994 C 11.614 -10.724 11.686 -10.777 12.672 -10.777 L 19.792 -10.777 C 20.365 -10.777 20.58 -10.637 20.58 -10.272 C 20.58 -9.888 20.365 -9.748 19.792 -9.748 L 12.672 -9.748 L 12.672 -8.339 L 18.226 -8.339 C 18.781 -8.339 18.996 -8.2 18.996 -7.835 C 18.996 -7.452 18.781 -7.312 18.226 -7.312 L 12.672 -7.312 Z M 31.971 -8.269 L 28.243 .122 C 28.028 .609 27.868 .767 27.617 .767 C 27.365 .767 27.204 .609 27.008 .175 L 22.527 -9.871 C 22.457 -10.01 22.403 -10.219 22.403 -10.324 C 22.403 -10.567 22.654 -10.794 22.941 -10.794 C 23.172 -10.794 23.316 -10.672 23.477 -10.324 L 23.944 -9.297 L 31.271 -9.297 L 31.72 -10.254 C 31.9 -10.672 32.042 -10.812 32.292 -10.812 C 32.579 -10.812 32.85 -10.584 32.85 -10.324 C 32.85 -10.219 32.812 -10.116 32.706 -9.888 L 32.455 -9.297 L 32.723 -9.297 C 33.279 -9.297 33.494 -9.158 33.494 -8.792 C 33.494 -8.409 33.279 -8.269 32.723 -8.269 Z M 27.598 -1.061 L 30.823 -8.269 L 24.391 -8.269 Z M 42.926 -9.505 L 42.926 -10.045 C 42.926 -10.584 43.087 -10.812 43.445 -10.812 C 43.803 -10.812 43.982 -10.567 43.982 -10.045 L 43.982 0 C 43.982 .521 43.821 .749 43.462 .749 C 43.104 .749 42.926 .505 42.926 0 L 42.926 -8.444 L 38.159 -9.592 C 37.854 -9.68 37.479 -9.732 37.3 -9.732 C 37.03 -9.732 36.887 -9.592 36.869 -9.314 C 36.851 -9.174 36.851 -9.174 36.851 -8.218 L 36.851 0 C 36.851 .521 36.688 .749 36.332 .749 C 35.972 .749 35.793 .505 35.793 0 L 35.793 -8.148 C 35.793 -9.871 35.793 -9.906 36.044 -10.324 C 36.26 -10.672 36.6 -10.864 37.013 -10.864 C 37.156 -10.864 37.389 -10.83 37.657 -10.759 Z M 51.563 -.192 L 55.628 -.192 C 56.203 -.192 56.417 -.053 56.417 .313 C 56.417 .696 56.203 .836 55.628 .836 L 46.492 .836 C 45.936 .836 45.721 .696 45.721 .331 C 45.721 -.053 45.936 -.192 46.492 -.192 L 50.503 -.192 L 50.503 -10.048 C 50.503 -10.57 50.665 -10.797 51.023 -10.797 C 51.382 -10.797 51.563 -10.553 51.563 -10.048 Z M 64.211 -4.614 L 68.874 -.225 C 69.086 -.07 69.179 .069 69.179 .243 C 69.179 .521 68.927 .783 68.676 .783 L 68.319 .643 L 63.691 -3.692 L 59.19 .574 C 58.975 .749 58.851 .801 58.707 .801 C 58.438 .801 58.187 .558 58.187 .278 C 58.187 .122 58.276 -.035 58.438 -.157 L 63.153 -4.614 L 63.153 -10.083 C 63.153 -10.623 63.314 -10.849 63.674 -10.849 C 64.032 -10.849 64.211 -10.604 64.211 -10.083 Z " fill="#231f20"/>
<path transform="matrix(1,0,0,-1,14.6631,18.623795)" stroke-width=".295" stroke-linecap="butt" stroke-miterlimit="4" stroke-linejoin="miter" fill="none" stroke="#231f20" d="M 0 0 C 0 .521 -.162 .749 -.519 .749 C -.879 .749 -1.057 .505 -1.057 0 L -1.057 -9.958 C -1.057 -10.672 -.968 -10.812 -.484 -10.812 C .449 -10.812 2.185 -10.567 3.351 -10.254 C 6.81 -9.383 9.299 -7.399 9.299 -5.553 C 9.299 -4.056 7.634 -3.082 5.106 -3.082 C 4.803 -3.082 4.533 -3.099 4.049 -3.134 C 4.963 -2.455 5.411 -1.742 5.411 -.958 C 5.411 .087 4.426 .818 3.029 .818 C 2.079 .818 1.201 .521 0 -.21 L 0 0 Z M 0 -1.271 C .95 -.643 2.131 -.225 2.975 -.225 C 3.708 -.225 4.192 -.575 4.192 -1.114 C 4.192 -2.193 2.275 -3.517 0 -4.021 L 0 -1.271 Z M 0 -4.979 C 1.434 -4.388 3.082 -4.075 4.641 -4.075 C 6.81 -4.075 8.1 -4.684 8.1 -5.71 C 8.1 -6.667 6.79 -7.816 4.73 -8.687 C 3.208 -9.314 2.383 -9.505 0 -9.766 L 0 -4.979 Z M 12.672 -.192 L 18.208 -.192 C 18.763 -.192 18.979 -.053 18.979 .313 C 18.979 .696 18.763 .836 18.208 .836 L 12.672 .836 C 11.705 .836 11.614 .767 11.614 -.035 L 11.614 -9.994 C 11.614 -10.724 11.686 -10.777 12.672 -10.777 L 19.792 -10.777 C 20.365 -10.777 20.58 -10.637 20.58 -10.272 C 20.58 -9.888 20.365 -9.748 19.792 -9.748 L 12.672 -9.748 L 12.672 -8.339 L 18.226 -8.339 C 18.781 -8.339 18.996 -8.2 18.996 -7.835 C 18.996 -7.452 18.781 -7.312 18.226 -7.312 L 12.672 -7.312 L 12.672 -.192 Z M 31.971 -8.269 L 28.243 .122 C 28.028 .609 27.868 .767 27.617 .767 C 27.365 .767 27.204 .609 27.008 .175 L 22.527 -9.871 C 22.457 -10.01 22.403 -10.219 22.403 -10.324 C 22.403 -10.567 22.654 -10.794 22.941 -10.794 C 23.172 -10.794 23.316 -10.672 23.477 -10.324 L 23.944 -9.297 L 31.271 -9.297 L 31.72 -10.254 C 31.9 -10.672 32.042 -10.812 32.292 -10.812 C 32.579 -10.812 32.85 -10.584 32.85 -10.324 C 32.85 -10.219 32.812 -10.116 32.706 -9.888 L 32.455 -9.297 L 32.723 -9.297 C 33.279 -9.297 33.494 -9.158 33.494 -8.792 C 33.494 -8.409 33.279 -8.269 32.723 -8.269 L 31.971 -8.269 Z M 27.598 -1.061 L 30.823 -8.269 L 24.391 -8.269 L 27.598 -1.061 Z M 42.926 -9.505 L 42.926 -10.045 C 42.926 -10.584 43.087 -10.812 43.445 -10.812 C 43.803 -10.812 43.982 -10.567 43.982 -10.045 L 43.982 0 C 43.982 .521 43.821 .749 43.462 .749 C 43.104 .749 42.926 .505 42.926 0 L 42.926 -8.444 L 38.159 -9.592 C 37.854 -9.68 37.479 -9.732 37.3 -9.732 C 37.03 -9.732 36.887 -9.592 36.869 -9.314 C 36.851 -9.174 36.851 -9.174 36.851 -8.218 L 36.851 0 C 36.851 .521 36.688 .749 36.332 .749 C 35.972 .749 35.793 .505 35.793 0 L 35.793 -8.148 C 35.793 -9.871 35.793 -9.906 36.044 -10.324 C 36.26 -10.672 36.6 -10.864 37.013 -10.864 C 37.156 -10.864 37.389 -10.83 37.657 -10.759 L 42.926 -9.505 Z M 51.563 -.192 L 55.628 -.192 C 56.203 -.192 56.417 -.053 56.417 .313 C 56.417 .696 56.203 .836 55.628 .836 L 46.492 .836 C 45.936 .836 45.721 .696 45.721 .331 C 45.721 -.053 45.936 -.192 46.492 -.192 L 50.503 -.192 L 50.503 -10.048 C 50.503 -10.57 50.665 -10.797 51.023 -10.797 C 51.382 -10.797 51.563 -10.553 51.563 -10.048 L 51.563 -.192 Z M 64.211 -4.614 L 68.874 -.225 C 69.086 -.07 69.179 .069 69.179 .243 C 69.179 .521 68.927 .783 68.676 .783 L 68.319 .643 L 63.691 -3.692 L 59.19 .574 C 58.975 .749 58.851 .801 58.707 .801 C 58.438 .801 58.187 .558 58.187 .278 C 58.187 .122 58.276 -.035 58.438 -.157 L 63.153 -4.614 L 63.153 -10.083 C 63.153 -10.623 63.314 -10.849 63.674 -10.849 C 64.032 -10.849 64.211 -10.604 64.211 -10.083 L 64.211 -4.614 Z "/>
<path transform="matrix(1,0,0,-1,77.8955,36.019796)" d="M 0 0 C 0 .539 -.144 .749 -.519 .749 C -.879 .749 -1.057 .506 -1.057 0 L -1.057 -10.043 C -1.057 -10.583 -.895 -10.811 -.538 -10.811 C -.179 -10.811 0 -10.566 0 -10.043 L 0 -8.147 L 10.249 -10.705 C 10.499 -10.776 10.678 -10.811 10.75 -10.811 C 11.001 -10.826 11.215 -10.566 11.215 -10.253 C 11.215 -9.99 11.055 -9.852 10.642 -9.747 L 1.828 -7.537 C 5.661 -6.04 8.331 -3.604 8.331 -1.584 C 8.331 -.122 6.807 .802 4.425 .802 C 2.956 .802 1.397 .471 0 -.122 Z M 0 -1.201 C 1.146 -.626 2.991 -.209 4.408 -.209 C 6.163 -.209 7.167 -.748 7.167 -1.706 C 7.167 -2.663 6.163 -3.916 4.408 -5.118 C 3.153 -5.987 1.701 -6.633 0 -7.084 Z M 14.418 -1.392 L 20.917 -10.443 C 21.098 -10.705 21.258 -10.811 21.474 -10.811 C 21.85 -10.811 21.975 -10.618 21.975 -10.043 L 21.975 3.896 C 21.975 4.42 21.814 4.646 21.456 4.646 C 21.098 4.646 20.917 4.402 20.917 3.896 L 20.917 -8.53 L 14.722 .035 C 14.187 .767 14.167 .784 13.898 .784 C 13.702 .784 13.504 .679 13.433 .539 C 13.379 .418 13.36 .331 13.36 -.052 L 13.36 -10.043 C 13.36 -10.583 13.522 -10.811 13.881 -10.811 C 14.239 -10.811 14.418 -10.566 14.418 -10.043 Z M 26.248 -.19 L 31.786 -.19 C 32.341 -.19 32.557 -.052 32.557 .313 C 32.557 .696 32.341 .836 31.786 .836 L 26.248 .836 C 25.28 .836 25.191 .767 25.191 -.034 L 25.191 -9.99 C 25.191 -10.723 25.263 -10.776 26.248 -10.776 L 34.095 -10.776 C 34.668 -10.776 34.882 -10.636 34.882 -10.27 C 34.882 -9.887 34.668 -9.747 34.095 -9.747 L 26.248 -9.747 L 26.248 -8.337 L 31.803 -8.337 C 32.359 -8.337 32.574 -8.198 32.574 -7.833 C 32.574 -7.45 32.359 -7.311 31.803 -7.311 L 26.248 -7.311 Z M 38.085 0 C 38.085 .539 37.94 .749 37.563 .749 C 37.207 .749 37.027 .506 37.027 0 L 37.027 -10.043 C 37.027 -10.583 37.188 -10.811 37.546 -10.811 C 37.905 -10.811 38.085 -10.566 38.085 -10.043 L 38.085 -8.147 L 48.334 -10.705 C 48.585 -10.776 48.763 -10.811 48.834 -10.811 C 49.085 -10.826 49.301 -10.566 49.301 -10.253 C 49.301 -9.99 49.14 -9.852 48.728 -9.747 L 39.912 -7.537 C 43.747 -6.04 46.416 -3.604 46.416 -1.584 C 46.416 -.122 44.893 .802 42.511 .802 C 41.04 .802 39.481 .471 38.085 -.122 Z M 38.085 -1.201 C 39.23 -.626 41.077 -.209 42.492 -.209 C 44.247 -.209 45.252 -.748 45.252 -1.706 C 45.252 -2.663 44.247 -3.916 42.492 -5.118 C 41.237 -5.987 39.787 -6.633 38.085 -7.084 Z " fill="#231f20"/>
<path transform="matrix(1,0,0,-1,77.8955,36.019796)" stroke-width=".295" stroke-linecap="butt" stroke-miterlimit="4" stroke-linejoin="miter" fill="none" stroke="#231f20" d="M 0 0 C 0 .539 -.144 .749 -.519 .749 C -.879 .749 -1.057 .506 -1.057 0 L -1.057 -10.043 C -1.057 -10.583 -.895 -10.811 -.538 -10.811 C -.179 -10.811 0 -10.566 0 -10.043 L 0 -8.147 L 10.249 -10.705 C 10.499 -10.776 10.678 -10.811 10.75 -10.811 C 11.001 -10.826 11.215 -10.566 11.215 -10.253 C 11.215 -9.99 11.055 -9.852 10.642 -9.747 L 1.828 -7.537 C 5.661 -6.04 8.331 -3.604 8.331 -1.584 C 8.331 -.122 6.807 .802 4.425 .802 C 2.956 .802 1.397 .471 0 -.122 L 0 0 Z M 0 -1.201 C 1.146 -.626 2.991 -.209 4.408 -.209 C 6.163 -.209 7.167 -.748 7.167 -1.706 C 7.167 -2.663 6.163 -3.916 4.408 -5.118 C 3.153 -5.987 1.701 -6.633 0 -7.084 L 0 -1.201 Z M 14.418 -1.392 L 20.917 -10.443 C 21.098 -10.705 21.258 -10.811 21.474 -10.811 C 21.85 -10.811 21.975 -10.618 21.975 -10.043 L 21.975 3.896 C 21.975 4.42 21.814 4.646 21.456 4.646 C 21.098 4.646 20.917 4.402 20.917 3.896 L 20.917 -8.53 L 14.722 .035 C 14.187 .767 14.167 .784 13.898 .784 C 13.702 .784 13.504 .679 13.433 .539 C 13.379 .418 13.36 .331 13.36 -.052 L 13.36 -10.043 C 13.36 -10.583 13.522 -10.811 13.881 -10.811 C 14.239 -10.811 14.418 -10.566 14.418 -10.043 L 14.418 -1.392 Z M 26.248 -.19 L 31.786 -.19 C 32.341 -.19 32.557 -.052 32.557 .313 C 32.557 .696 32.341 .836 31.786 .836 L 26.248 .836 C 25.28 .836 25.191 .767 25.191 -.034 L 25.191 -9.99 C 25.191 -10.723 25.263 -10.776 26.248 -10.776 L 34.095 -10.776 C 34.668 -10.776 34.882 -10.636 34.882 -10.27 C 34.882 -9.887 34.668 -9.747 34.095 -9.747 L 26.248 -9.747 L 26.248 -8.337 L 31.803 -8.337 C 32.359 -8.337 32.574 -8.198 32.574 -7.833 C 32.574 -7.45 32.359 -7.311 31.803 -7.311 L 26.248 -7.311 L 26.248 -.19 Z M 38.085 0 C 38.085 .539 37.94 .749 37.563 .749 C 37.207 .749 37.027 .506 37.027 0 L 37.027 -10.043 C 37.027 -10.583 37.188 -10.811 37.546 -10.811 C 37.905 -10.811 38.085 -10.566 38.085 -10.043 L 38.085 -8.147 L 48.334 -10.705 C 48.585 -10.776 48.763 -10.811 48.834 -10.811 C 49.085 -10.826 49.301 -10.566 49.301 -10.253 C 49.301 -9.99 49.14 -9.852 48.728 -9.747 L 39.912 -7.537 C 43.747 -6.04 46.416 -3.604 46.416 -1.584 C 46.416 -.122 44.893 .802 42.511 .802 C 41.04 .802 39.481 .471 38.085 -.122 L 38.085 0 Z M 38.085 -1.201 C 39.23 -.626 41.077 -.209 42.492 -.209 C 44.247 -.209 45.252 -.748 45.252 -1.706 C 45.252 -2.663 44.247 -3.916 42.492 -5.118 C 41.237 -5.987 39.787 -6.633 38.085 -7.084 L 38.085 -1.201 Z "/>
<path transform="matrix(1,0,0,-1,83.4756,55.021299)" d="M 0 0 C 0 .92 -.245 1.277 -.886 1.277 C -1.498 1.277 -1.804 .86 -1.804 0 L -1.804 -17.129 C -1.804 -18.047 -1.528 -18.436 -.917 -18.436 C -.305 -18.436 0 -18.019 0 -17.129 L 0 -13.893 L 17.482 -18.256 C 17.911 -18.375 18.218 -18.436 18.34 -18.436 C 18.768 -18.464 19.134 -18.019 19.134 -17.484 C 19.134 -17.039 18.858 -16.801 18.156 -16.623 L 3.118 -12.854 C 9.659 -10.301 14.212 -6.146 14.212 -2.702 C 14.212 -.208 11.615 1.365 7.55 1.365 C 5.044 1.365 2.383 .802 0 -.208 Z M 0 -2.048 C 1.955 -1.069 5.104 -.356 7.519 -.356 C 10.514 -.356 12.226 -1.277 12.226 -2.909 C 12.226 -4.542 10.514 -6.679 7.519 -8.727 C 5.38 -10.213 2.904 -11.31 0 -12.081 Z M 32.583 -16.208 L 32.583 -17.129 C 32.583 -18.047 32.856 -18.436 33.468 -18.436 C 34.08 -18.436 34.387 -18.019 34.387 -17.129 L 34.387 0 C 34.387 .89 34.11 1.277 33.499 1.277 C 32.888 1.277 32.583 .86 32.583 0 L 32.583 -14.397 L 24.452 -16.356 C 23.932 -16.504 23.29 -16.593 22.984 -16.593 C 22.526 -16.593 22.282 -16.356 22.251 -15.881 C 22.221 -15.643 22.221 -15.643 22.221 -14.01 L 22.221 0 C 22.221 .89 21.946 1.277 21.335 1.277 C 20.723 1.277 20.416 .86 20.416 0 L 20.416 -13.893 C 20.416 -16.831 20.416 -16.892 20.845 -17.604 C 21.214 -18.197 21.793 -18.522 22.496 -18.522 C 22.74 -18.522 23.138 -18.464 23.597 -18.345 Z M 39.327 0 C 39.327 .89 39.052 1.277 38.439 1.277 C 37.829 1.277 37.523 .86 37.523 0 L 37.523 -16.979 C 37.523 -18.197 37.677 -18.436 38.502 -18.436 C 40.091 -18.436 43.055 -18.019 45.043 -17.484 C 50.941 -16 55.19 -12.617 55.19 -9.469 C 55.19 -6.917 52.348 -5.255 48.038 -5.255 C 47.518 -5.255 47.06 -5.283 46.233 -5.344 C 47.794 -4.186 48.557 -2.968 48.557 -1.633 C 48.557 .147 46.878 1.396 44.491 1.396 C 42.872 1.396 41.375 .89 39.327 -.356 Z M 39.327 -2.167 C 40.947 -1.099 42.965 -.386 44.4 -.386 C 45.654 -.386 46.479 -.979 46.479 -1.899 C 46.479 -3.739 43.209 -5.996 39.327 -6.858 Z M 39.327 -8.489 C 41.771 -7.481 44.585 -6.946 47.243 -6.946 C 50.941 -6.946 53.143 -7.986 53.143 -9.737 C 53.143 -11.368 50.912 -13.328 47.396 -14.813 C 44.798 -15.881 43.392 -16.208 39.327 -16.654 Z M 57.416 -17.129 C 57.416 -18.047 57.689 -18.436 58.301 -18.436 C 58.912 -18.436 59.219 -18.019 59.219 -17.129 L 59.219 0 C 59.219 .89 58.943 1.277 58.332 1.277 C 57.72 1.277 57.416 .86 57.416 0 Z M 63.922 -2.376 L 74.282 -17.811 C 74.586 -18.256 74.862 -18.436 75.229 -18.436 C 75.871 -18.436 76.085 -18.108 76.085 -17.129 L 76.085 5.195 C 76.085 6.085 75.81 6.471 75.198 6.471 C 74.586 6.471 74.282 6.055 74.282 5.195 L 74.282 -14.546 L 64.439 .058 C 63.523 1.305 63.492 1.335 63.033 1.335 C 62.698 1.335 62.36 1.158 62.239 .92 C 62.147 .713 62.117 .564 62.117 -.089 L 62.117 -17.129 C 62.117 -18.047 62.392 -18.436 63.002 -18.436 C 63.614 -18.436 63.922 -18.019 63.922 -17.129 Z " fill="#231f20"/>
<path transform="matrix(1,0,0,-1,83.4756,55.021299)" stroke-width=".295" stroke-linecap="butt" stroke-miterlimit="4" stroke-linejoin="miter" fill="none" stroke="#231f20" d="M 0 0 C 0 .92 -.245 1.277 -.886 1.277 C -1.498 1.277 -1.804 .86 -1.804 0 L -1.804 -17.129 C -1.804 -18.047 -1.528 -18.436 -.917 -18.436 C -.305 -18.436 0 -18.019 0 -17.129 L 0 -13.893 L 17.482 -18.256 C 17.911 -18.375 18.218 -18.436 18.34 -18.436 C 18.768 -18.464 19.134 -18.019 19.134 -17.484 C 19.134 -17.039 18.858 -16.801 18.156 -16.623 L 3.118 -12.854 C 9.659 -10.301 14.212 -6.146 14.212 -2.702 C 14.212 -.208 11.615 1.365 7.55 1.365 C 5.044 1.365 2.383 .802 0 -.208 L 0 0 Z M 0 -2.048 C 1.955 -1.069 5.104 -.356 7.519 -.356 C 10.514 -.356 12.226 -1.277 12.226 -2.909 C 12.226 -4.542 10.514 -6.679 7.519 -8.727 C 5.38 -10.213 2.904 -11.31 0 -12.081 L 0 -2.048 Z M 32.583 -16.208 L 32.583 -17.129 C 32.583 -18.047 32.856 -18.436 33.468 -18.436 C 34.08 -18.436 34.387 -18.019 34.387 -17.129 L 34.387 0 C 34.387 .89 34.11 1.277 33.499 1.277 C 32.888 1.277 32.583 .86 32.583 0 L 32.583 -14.397 L 24.452 -16.356 C 23.932 -16.504 23.29 -16.593 22.984 -16.593 C 22.526 -16.593 22.282 -16.356 22.251 -15.881 C 22.221 -15.643 22.221 -15.643 22.221 -14.01 L 22.221 0 C 22.221 .89 21.946 1.277 21.335 1.277 C 20.723 1.277 20.416 .86 20.416 0 L 20.416 -13.893 C 20.416 -16.831 20.416 -16.892 20.845 -17.604 C 21.214 -18.197 21.793 -18.522 22.496 -18.522 C 22.74 -18.522 23.138 -18.464 23.597 -18.345 L 32.583 -16.208 Z M 39.327 0 C 39.327 .89 39.052 1.277 38.439 1.277 C 37.829 1.277 37.523 .86 37.523 0 L 37.523 -16.979 C 37.523 -18.197 37.677 -18.436 38.502 -18.436 C 40.091 -18.436 43.055 -18.019 45.043 -17.484 C 50.941 -16 55.19 -12.617 55.19 -9.469 C 55.19 -6.917 52.348 -5.255 48.038 -5.255 C 47.518 -5.255 47.06 -5.283 46.233 -5.344 C 47.794 -4.186 48.557 -2.968 48.557 -1.633 C 48.557 .147 46.878 1.396 44.491 1.396 C 42.872 1.396 41.375 .89 39.327 -.356 L 39.327 0 Z M 39.327 -2.167 C 40.947 -1.099 42.965 -.386 44.4 -.386 C 45.654 -.386 46.479 -.979 46.479 -1.899 C 46.479 -3.739 43.209 -5.996 39.327 -6.858 L 39.327 -2.167 Z M 39.327 -8.489 C 41.771 -7.481 44.585 -6.946 47.243 -6.946 C 50.941 -6.946 53.143 -7.986 53.143 -9.737 C 53.143 -11.368 50.912 -13.328 47.396 -14.813 C 44.798 -15.881 43.392 -16.208 39.327 -16.654 L 39.327 -8.489 Z M 57.416 -17.129 C 57.416 -18.047 57.689 -18.436 58.301 -18.436 C 58.912 -18.436 59.219 -18.019 59.219 -17.129 L 59.219 0 C 59.219 .89 58.943 1.277 58.332 1.277 C 57.72 1.277 57.416 .86 57.416 0 L 57.416 -17.129 Z M 63.922 -2.376 L 74.282 -17.811 C 74.586 -18.256 74.862 -18.436 75.229 -18.436 C 75.871 -18.436 76.085 -18.108 76.085 -17.129 L 76.085 5.195 C 76.085 6.085 75.81 6.471 75.198 6.471 C 74.586 6.471 74.282 6.055 74.282 5.195 L 74.282 -14.546 L 64.439 .058 C 63.523 1.305 63.492 1.335 63.033 1.335 C 62.698 1.335 62.36 1.158 62.239 .92 C 62.147 .713 62.117 .564 62.117 -.089 L 62.117 -17.129 C 62.117 -18.047 62.392 -18.436 63.002 -18.436 C 63.614 -18.436 63.922 -18.019 63.922 -17.129 L 63.922 -2.376 Z "/>
<path transform="matrix(1,0,0,-1,67.2075,46.113996)" d="M 0 0 C -.822 -.201 -1.478 .165 -1.663 .918 C -2.343 3.694 1.191 9.778 3.867 10.435 C 4.729 10.646 5.459 10.23 5.604 9.467 C 6.152 6.49 2.696 .661 0 0 M 3.813 11.324 C 2.282 10.948 .599 9.55 -.735 7.556 C -2.325 5.194 -3.2 2.225 -2.803 .604 C -2.497 -.646 -1.333 -1.263 .064 -.921 C 1.651 -.532 3.438 .945 4.734 2.927 C 6.281 5.297 7.113 8.188 6.724 9.775 C 6.386 11.155 5.34 11.698 3.813 11.324 " fill="#231f20"/>
<path transform="matrix(1,0,0,-1,67.2075,46.113996)" stroke-width=".295" stroke-linecap="butt" stroke-miterlimit="4" stroke-linejoin="miter" fill="none" stroke="#231f20" d="M 0 0 C -.822 -.201 -1.478 .165 -1.663 .918 C -2.343 3.694 1.191 9.778 3.867 10.435 C 4.729 10.646 5.459 10.23 5.604 9.467 C 6.152 6.49 2.696 .661 0 0 Z M 3.813 11.324 C 2.282 10.948 .599 9.55 -.735 7.556 C -2.325 5.194 -3.2 2.225 -2.803 .604 C -2.497 -.646 -1.333 -1.263 .064 -.921 C 1.651 -.532 3.438 .945 4.734 2.927 C 6.281 5.297 7.113 8.188 6.724 9.775 C 6.386 11.155 5.34 11.698 3.813 11.324 Z "/>
<path transform="matrix(1,0,0,-1,61.5171,36.749799)" d="M 0 0 C 0 -.54 .144 -.749 .519 -.749 C .879 -.749 1.057 -.505 1.057 0 L 1.057 .505 C 1.057 1.044 .824 1.34 .395 1.34 C -.018 1.34 -.555 1.236 -1.523 .974 C -3.475 .453 -4.676 -.104 -6.039 -1.096 C -8.064 -2.593 -9.157 -4.368 -9.157 -6.18 C -9.157 -8.478 -7.345 -10.166 -4.909 -10.166 C -3.513 -10.166 -2.025 -9.678 -.752 -8.792 C -.107 -8.356 .072 -8.165 .072 -7.921 C .072 -7.66 -.179 -7.398 -.43 -7.398 L -.789 -7.538 C -1.595 -8.146 -1.647 -8.181 -2.114 -8.425 C -2.992 -8.879 -3.87 -9.104 -4.73 -9.104 C -6.612 -9.104 -7.973 -7.85 -7.973 -6.128 C -7.973 -4.614 -7.15 -3.239 -5.537 -2.003 C -3.924 -.783 -2.258 -.087 0 .331 Z " fill="#231f20"/>
<path transform="matrix(1,0,0,-1,61.5171,36.749799)" stroke-width=".295" stroke-linecap="butt" stroke-miterlimit="4" stroke-linejoin="miter" fill="none" stroke="#231f20" d="M 0 0 C 0 -.54 .144 -.749 .519 -.749 C .879 -.749 1.057 -.505 1.057 0 L 1.057 .505 C 1.057 1.044 .824 1.34 .395 1.34 C -.018 1.34 -.555 1.236 -1.523 .974 C -3.475 .453 -4.676 -.104 -6.039 -1.096 C -8.064 -2.593 -9.157 -4.368 -9.157 -6.18 C -9.157 -8.478 -7.345 -10.166 -4.909 -10.166 C -3.513 -10.166 -2.025 -9.678 -.752 -8.792 C -.107 -8.356 .072 -8.165 .072 -7.921 C .072 -7.66 -.179 -7.398 -.43 -7.398 L -.789 -7.538 C -1.595 -8.146 -1.647 -8.181 -2.114 -8.425 C -2.992 -8.879 -3.87 -9.104 -4.73 -9.104 C -6.612 -9.104 -7.973 -7.85 -7.973 -6.128 C -7.973 -4.614 -7.15 -3.239 -5.537 -2.003 C -3.924 -.783 -2.258 -.087 0 .331 L 0 0 Z "/>
</g>
</g>
</g>
</svg>
